<?xml version="1.0" encoding="UTF-8" standalone="no"?>
<!-- Created with Inkscape (http://www.inkscape.org/) -->

<svg
   xmlns:dc="http://purl.org/dc/elements/1.1/"
   xmlns:cc="http://creativecommons.org/ns#"
   xmlns:rdf="http://www.w3.org/1999/02/22-rdf-syntax-ns#"
   xmlns:svg="http://www.w3.org/2000/svg"
   xmlns="http://www.w3.org/2000/svg"
   xmlns:sodipodi="http://sodipodi.sourceforge.net/DTD/sodipodi-0.dtd"
   xmlns:inkscape="http://www.inkscape.org/namespaces/inkscape"
   version="1.2"
   width="719.71411"
   height="160.75975"
   id="svg2"
   xml:space="preserve"
   inkscape:version="0.48.5 r10040"
   sodipodi:docname="logo.svg"><sodipodi:namedview
     pagecolor="#ffffff"
     bordercolor="#666666"
     borderopacity="1"
     objecttolerance="10"
     gridtolerance="10"
     guidetolerance="10"
     inkscape:pageopacity="0"
     inkscape:pageshadow="2"
     inkscape:window-width="1447"
     inkscape:window-height="732"
     id="namedview15"
     showgrid="false"
     fit-margin-top="0"
     fit-margin-left="0"
     fit-margin-right="0"
     fit-margin-bottom="0"
     inkscape:zoom="0.40113636"
     inkscape:cx="340.61784"
     inkscape:cy="56.1125"
     inkscape:window-x="75"
     inkscape:window-y="49"
     inkscape:window-maximized="0"
     inkscape:current-layer="svg2" /><metadata
     id="metadata8"><rdf:RDF><cc:Work
         rdf:about=""><dc:format>image/svg+xml</dc:format><dc:type
           rdf:resource="http://purl.org/dc/dcmitype/StillImage" /><dc:title /></cc:Work></rdf:RDF></metadata><defs
     id="defs6"><clipPath
       id="clipPath16"><path
         d="M 0,379 704,379 704,0 0,0 0,379 z"
         id="path18"
         inkscape:connector-curvature="0" /></clipPath></defs><g
     transform="matrix(1.25,0,0,-1.25,-104.368,341.52225)"
     id="g10"><g
       transform="translate(118.7964,217.877)"
       id="g20"><path
         d="m 0,0 c -20.382,0 -35.302,-15.584 -35.302,-38.897 0,-19.051 12.656,-34.37 34.105,-34.37 18.782,0 27.974,10.658 30.905,20.381 l -3.864,1.734 c -4.395,-5.461 -11.855,-10.525 -22.912,-10.525 -17.583,0 -25.578,11.323 -25.578,29.707 l 52.219,0 0,3.73 C 29.573,-12.255 19.451,0 0,0 m -3.329,-8.258 c 11.988,0 18.251,-7.726 18.251,-17.051 l -37.168,0 c 1.466,9.991 8.393,17.051 18.917,17.051 M 67.35,-73.267 c 16.252,0 27.043,7.994 27.043,21.182 0,12.654 -6.794,17.717 -19.317,21.446 l -10.524,3.198 c -6.661,2.132 -9.859,4.529 -9.859,10.125 0,6.928 5.064,10.257 12.258,10.257 9.856,0 15.585,-4.397 17.716,-15.186 l 5.597,0 0,16.517 C 84.001,-2.13 76.807,0 67.35,0 52.297,0 42.705,-7.726 42.705,-20.113 c 0,-12.123 6.927,-16.652 18.117,-20.116 l 9.326,-2.931 c 7.593,-2.265 12.121,-4.797 12.121,-11.19 0,-7.725 -5.594,-11.857 -14.919,-11.857 -11.057,0 -17.318,6.13 -20.117,17.585 l -5.594,0 0.799,-17.717 c 5.462,-3.996 14.121,-6.928 24.912,-6.928 m 58.559,87.122 -3.996,0 C 115.117,5.331 109.389,0.269 102.33,-3.996 l 0,-4.661 10.256,0 0,-45.693 c 0,-13.721 9.192,-18.917 19.317,-18.917 9.192,0 15.186,4.662 18.518,8.393 l -1.6,3.728 c -3.596,-1.73 -7.059,-2.396 -10.656,-2.396 -8.128,0 -12.256,4.263 -12.256,13.855 l 0,41.03 20.78,0 0,7.326 -20.78,0 0,15.186 z m 84.668,-87.122 1.997,0 23.314,4.662 0,5.329 -3.598,0.4 c -6.262,0.666 -7.726,1.6 -7.726,6.127 l 0,42.896 0.666,13.853 -3.464,0 -21.847,-2.662 0,-5.33 2.399,-0.266 c 6.659,-0.799 8.924,-2.13 8.924,-6.928 l 0,-39.031 c -5.595,-4.529 -12.122,-8.792 -20.249,-8.792 -7.86,0 -13.454,3.594 -13.454,13.454 l 0,35.702 0.667,13.853 -3.464,0 -21.847,-2.662 0,-5.33 2.396,-0.266 c 6.662,-0.799 8.925,-2.13 8.925,-6.928 l 0,-36.233 c 0,-15.586 9.192,-21.848 22.248,-21.848 10.524,0 19.049,6.128 24.778,13.054 l -0.665,-13.054 z m 69.215,65.675 c 10.125,0 19.85,-5.329 19.85,-17.983 l 0,-28.909 c -4.53,-4.795 -11.723,-8.392 -19.85,-8.392 -17.185,0 -23.179,14.254 -23.179,27.309 0,17.984 9.191,27.975 23.179,27.975 m 44.494,-61.013 0,5.329 -3.598,0.4 c -6.262,0.666 -7.727,1.6 -7.727,6.127 l 0,81.262 0.667,11.456 -4.663,0 -19.314,-6.661 0,-3.198 9.991,-3.596 0,-28.242 C 295.38,-2.53 289.25,0 280.458,0 c -20.25,0 -37.567,-15.318 -37.567,-39.963 0,-18.384 11.323,-33.304 31.838,-33.304 10.391,0 19.184,5.062 24.913,12.388 l -0.668,-12.388 1.999,0 23.313,4.662 z m 32.315,54.752 0.667,13.853 -4.664,0 -19.317,-6.659 0,-3.197 9.991,-4.663 0,-44.628 c 0,-6.126 -4.528,-6.794 -10.656,-7.593 l 0,-5.196 34.636,0 0,5.196 c -6.129,0.799 -10.657,1.467 -10.657,7.593 l 0,45.294 z m -16.119,34.635 c 0,-5.195 4.128,-9.324 9.325,-9.324 5.197,0 9.324,4.129 9.324,9.324 0,5.197 -4.127,9.327 -9.324,9.327 -5.197,0 -9.325,-4.13 -9.325,-9.327 m 73.878,-85.788 c -15.985,0 -25.312,14.385 -25.312,31.57 0,14.52 6.661,25.178 19.984,25.178 15.986,0 25.31,-14.388 25.31,-31.574 0,-14.518 -6.66,-25.174 -19.982,-25.174 m -3.996,-8.261 c 20.515,0 38.097,14.654 38.097,37.965 0,20.517 -14.386,35.302 -35.433,35.302 -20.516,0 -38.099,-14.653 -38.099,-37.964 0,-20.516 14.386,-35.303 35.435,-35.303"
         id="path22"
         style="fill:#e50d2e;fill-opacity:1;fill-rule:evenodd;stroke:none"
         inkscape:connector-curvature="0" /></g><path
       d="m 608.8887,216.4888 0,4.475 c -11.936,0.696 -15.414,1.194 -15.414,7.858 l 0,44.396 -2.387,0 c -5.67,-7.557 -10.144,-9.446 -20.783,-11.038 l -3.383,-0.501 0,-3.418 16.408,0 0,-29.439 c 0,-6.664 -4.472,-7.162 -16.408,-7.858 l 0,-4.475 z m 50.377,0 0,4.475 c -11.934,0.696 -15.414,1.194 -15.414,7.858 l 0,44.396 -2.387,0 c -5.67,-7.557 -10.144,-9.446 -20.785,-11.038 l -3.379,-0.501 0,-3.418 16.406,0 0,-29.439 c 0,-6.664 -4.474,-7.162 -16.406,-7.858 l 0,-4.475 z"
       id="path26"
       style="fill:#b7b2ac;fill-opacity:1;fill-rule:evenodd;stroke:none"
       inkscape:connector-curvature="0" /><flowRoot
       transform="matrix(0.8,0,0,-0.8,0,379)"
       id="flowRoot3003"
       xml:space="preserve"
       style="font-size:40px;font-style:normal;font-weight:normal;line-height:125%;letter-spacing:0px;word-spacing:0px;fill:#000000;fill-opacity:1;stroke:none;font-family:Sans"><flowRegion
         id="flowRegion3005"><rect
           width="742.7619"
           height="324.7619"
           x="76.476189"
           y="76.178574"
           id="rect3007" /></flowRegion><flowPara
         id="flowPara3009" /></flowRoot></g></svg>