<?xml version="1.0" encoding="UTF-8" standalone="no"?>
<!-- Created with Inkscape (http://www.inkscape.org/) -->

<svg
   xmlns:dc="http://purl.org/dc/elements/1.1/"
   xmlns:cc="http://creativecommons.org/ns#"
   xmlns:rdf="http://www.w3.org/1999/02/22-rdf-syntax-ns#"
   xmlns:svg="http://www.w3.org/2000/svg"
   xmlns="http://www.w3.org/2000/svg"
   xmlns:sodipodi="http://sodipodi.sourceforge.net/DTD/sodipodi-0.dtd"
   xmlns:inkscape="http://www.inkscape.org/namespaces/inkscape"
   version="1.1"
   width="80.198502"
   height="64.869499"
   id="svg2"
   xml:space="preserve"
   inkscape:version="0.48.5 r10040"
   sodipodi:docname="logo-min.svg"><sodipodi:namedview
     pagecolor="#ffffff"
     bordercolor="#666666"
     borderopacity="1"
     objecttolerance="10"
     gridtolerance="10"
     guidetolerance="10"
     inkscape:pageopacity="0"
     inkscape:pageshadow="2"
     inkscape:window-width="640"
     inkscape:window-height="480"
     id="namedview19"
     showgrid="false"
     fit-margin-top="-0.3"
     fit-margin-left="0"
     fit-margin-right="0"
     fit-margin-bottom="0"
     inkscape:zoom="0.23838384"
     inkscape:cx="-93.00825"
     inkscape:cy="-367.52688"
     inkscape:window-x="274"
     inkscape:window-y="258"
     inkscape:window-maximized="0"
     inkscape:current-layer="svg2" /><metadata
     id="metadata8"><rdf:RDF><cc:Work
         rdf:about=""><dc:format>image/svg+xml</dc:format><dc:type
           rdf:resource="http://purl.org/dc/dcmitype/StillImage" /><dc:title /></cc:Work></rdf:RDF></metadata><defs
     id="defs6"><clipPath
       id="clipPath16"><path
         d="M 0,792 612,792 612,0 0,0 0,792 z"
         id="path18"
         inkscape:connector-curvature="0" /></clipPath></defs><g
     transform="matrix(1.25,0,0,-1.25,-475.50825,927.39637)"
     id="g10"><g
       clip-path="url(#clipPath16)"
       id="g14"><g
         transform="translate(166.0112,413.3384)"
         id="g20" /><g
         transform="translate(438.1982,412.5674)"
         id="g24" /><g
         transform="translate(59.6035,707.8584)"
         id="g28" /><g
         transform="translate(423.6152,631.6196)"
         id="g32" /><g
         transform="translate(398.6426,726.1255)"
         id="g36"><path
           d="m 0,0 c 6.658,0 10.137,-4.291 10.137,-9.47 l -20.643,0 C -9.691,-3.921 -5.844,0 0,0 m 15.723,-23.822 c -2.442,-3.033 -6.584,-5.846 -12.726,-5.846 -9.765,0 -14.205,6.289 -14.205,16.499 l 29.001,0 0,2.071 c 0,8.878 -5.621,15.684 -16.424,15.684 -11.32,0 -19.605,-8.655 -19.605,-21.603 0,-10.58 7.028,-19.087 18.94,-19.087 10.431,0 15.536,5.918 17.164,11.319 l -2.145,0.963 z"
           id="path38"
           style="fill:#e50d2e;fill-opacity:1;fill-rule:evenodd;stroke:none"
           inkscape:connector-curvature="0" /></g><g
         transform="translate(444.5654,725.9531)"
         id="g40"><path
           d="m 0,0 0,1.278 c -3.053,0.199 -3.942,0.341 -3.942,2.244 l 0,12.682 -0.611,0 c -1.449,-2.158 -2.593,-2.698 -5.314,-3.153 l -0.864,-0.143 0,-0.976 4.194,0 0,-8.41 c 0,-1.903 -1.144,-2.045 -4.194,-2.244 L -10.731,0 0,0 z"
           id="path42"
           style="fill:#b7b2ac;fill-opacity:1;fill-rule:evenodd;stroke:none"
           inkscape:connector-curvature="0" /></g><g
         transform="translate(431.6826,725.9531)"
         id="g44"><path
           d="m 0,0 0,1.278 c -3.053,0.199 -3.942,0.341 -3.942,2.244 l 0,12.682 -0.611,0 c -1.449,-2.158 -2.593,-2.698 -5.314,-3.153 l -0.864,-0.143 0,-0.976 4.195,0 0,-8.41 c 0,-1.903 -1.145,-2.045 -4.195,-2.244 L -10.731,0 0,0 z"
           id="path46"
           style="fill:#b7b2ac;fill-opacity:1;fill-rule:evenodd;stroke:none"
           inkscape:connector-curvature="0" /></g></g></g></svg>